<svg width="827" height="827" viewBox="0 0 827 827" fill="none" xmlns="http://www.w3.org/2000/svg">
<rect width="826.717" height="826.717" rx="118.102" fill="#7333DD"/>
<path d="M412.204 373.649C467.102 538.38 429.359 536.272 454.978 606.151L439.164 693.25C398.905 586.319 420.209 689.445 387.27 617.194C356.184 654.197 335.744 667.78 307.584 640.169C307.584 640.169 421.104 540.528 340.829 606.151C260.555 671.774 223.604 578.857 223.604 578.857L272.371 549.25C189.343 576.962 164.073 539.904 127.859 451.919L200.517 448.954C92.6562 423.148 71.0595 363.544 55.3635 230.733C206.104 299.288 293.257 330.298 412.204 373.649Z" fill="white"/>
<path d="M412.204 373.649C357.306 538.38 397.075 536.272 371.456 606.151L395.828 687.099C436.087 580.167 406.225 689.445 439.164 617.194C470.25 654.197 490.691 667.78 518.85 640.169C518.85 640.169 405.33 540.528 485.605 606.151C565.88 671.774 602.831 578.857 602.831 578.857L554.063 549.25C637.092 576.962 662.361 539.904 698.576 451.919L625.917 448.954C733.778 423.148 755.375 363.544 771.071 230.733C620.33 299.288 531.152 330.298 412.204 373.649Z" fill="white"/>
<path d="M411.948 795.069L494.037 795.069C536.183 795.069 548.559 737.604 510.148 720.256L507.711 719.155C498.899 715.175 491.842 708.118 487.862 699.306L452.024 619.957C436.443 585.459 387.453 585.459 371.872 619.957L336.034 699.306C332.054 708.118 324.997 715.175 316.186 719.155L313.748 720.256C275.338 737.604 287.713 795.069 329.859 795.069L411.948 795.069Z" fill="#7333DD"/>
<path d="M411.949 193.861L467.797 193.861C473.609 193.861 479.348 195.158 484.596 197.655L572.326 239.413C602.045 253.558 602.045 295.856 572.327 310.001L492.193 348.142C482.276 352.863 474.802 361.539 471.601 372.046L449.34 445.121C438.091 482.051 385.807 482.051 374.557 445.121L352.296 372.046C349.096 361.539 341.622 352.863 331.704 348.142L251.571 310.001C221.852 295.856 221.852 253.558 251.571 239.413L339.301 197.655C344.549 195.158 350.288 193.861 356.1 193.861L411.949 193.861Z" fill="#7333DD"/>
</svg>
