<svg width="827" height="827" viewBox="0 0 827 827" fill="none" xmlns="http://www.w3.org/2000/svg">
<rect width="826.717" height="826.717" rx="118.102" fill="#7333DD"/>
<path d="M376.449 137.729C386.63 100.992 438.723 100.992 448.903 137.729L464.524 194.098C471.419 218.982 500.772 229.665 522.049 215.036L570.249 181.895C601.662 160.297 641.567 193.781 625.752 228.468L601.484 281.69C590.772 305.184 606.39 332.236 632.093 334.706L690.318 340.301C728.266 343.947 737.311 395.249 702.9 411.654L650.099 436.826C626.791 447.937 621.367 478.699 639.469 497.113L680.476 538.825C707.201 566.011 681.155 611.125 644.249 601.572L587.622 586.916C562.624 580.446 538.695 600.524 540.726 626.265L545.327 684.578C548.326 722.582 499.374 740.398 477.243 709.358L443.285 661.731C428.294 640.707 397.058 640.707 382.067 661.731L348.109 709.358C325.978 740.398 277.027 722.582 280.025 684.578L284.626 626.265C286.657 600.524 262.728 580.446 237.731 586.916L181.103 601.572C144.197 611.125 118.151 566.011 144.876 538.825L185.883 497.113C203.985 478.699 198.561 447.937 175.253 436.826L122.452 411.654C88.0407 395.249 97.0866 343.947 135.034 340.301L193.259 334.706C218.962 332.236 234.58 305.184 223.868 281.69L199.601 228.468C183.785 193.781 223.69 160.297 255.103 181.895L303.303 215.036C324.58 229.665 353.933 218.982 360.828 194.098L376.449 137.729Z" fill="#F7D047"/>
<path d="M290.416 394.725C283.522 403.123 280.728 412.753 281.291 422.014C281.029 423.975 280.894 425.977 280.894 428.01V509.197C280.894 533.961 300.969 554.036 325.733 554.036H499.786C524.55 554.036 544.625 533.961 544.625 509.197V428.01C544.625 424.369 544.191 420.829 543.372 417.439C542.906 409.63 540.008 401.747 534.244 394.725L448.697 290.503C430.52 268.357 394.14 268.357 375.962 290.503L290.416 394.725Z" fill="#F7D047" stroke="#FED853" stroke-width="28.2127"/>
<path d="M386.866 299.453C399.4 284.182 425.26 284.182 437.794 299.453L523.34 403.674C538.329 421.935 523.489 447.442 497.877 447.442H326.783C301.171 447.442 286.331 421.935 301.319 403.675L386.866 299.453Z" fill="#5D20C0"/>
<path d="M295 428.01C295 411.037 308.76 397.277 325.733 397.277H499.786C516.759 397.277 530.519 411.037 530.519 428.01V509.197C530.519 526.17 516.759 539.93 499.786 539.93H325.733C308.76 539.93 295 526.17 295 509.197V428.01Z" fill="#5D20C0"/>
</svg>
