<svg width="135" height="135" viewBox="0 0 135 135" fill="none" xmlns="http://www.w3.org/2000/svg">
<rect width="134.392" height="134.392" rx="19.1989" fill="#0055FF"/>
<path d="M60.1171 20.5296C61.7158 14.7604 69.8964 14.7604 71.4952 20.5296L73.9482 29.3818C75.0311 33.2895 79.6407 34.9672 82.982 32.6698L90.5512 27.4655C95.4843 24.0736 101.751 29.332 99.2674 34.7792L95.4564 43.1371C93.7742 46.8266 96.2269 51.0748 100.263 51.4627L109.407 52.3413C115.366 52.914 116.787 60.9703 111.383 63.5466L103.091 67.4995C99.4307 69.2445 98.5788 74.0754 101.422 76.967L107.861 83.5175C112.058 87.7867 107.968 94.8713 102.172 93.3712L93.2794 91.0696C89.3539 90.0535 85.5961 93.2066 85.9151 97.249L86.6376 106.406C87.1084 112.374 79.4212 115.172 75.9456 110.298L70.6129 102.819C68.2588 99.5169 63.3534 99.5169 60.9994 102.819L55.6666 110.298C52.1911 115.172 44.5038 112.374 44.9747 106.406L45.6972 97.249C46.0161 93.2066 42.2584 90.0535 38.3328 91.0696L29.4401 93.3712C23.6444 94.8713 19.5541 87.7867 23.751 83.5175L30.1907 76.967C33.0334 74.0754 32.1816 69.2445 28.5213 67.4995L20.2296 63.5466C14.8256 60.9703 16.2462 52.914 22.2054 52.3413L31.349 51.4627C35.3854 51.0748 37.8381 46.8266 36.1558 43.1371L32.3449 34.7792C29.8612 29.332 36.1279 24.0736 41.061 27.4655L48.6302 32.6698C51.9716 34.9672 56.5811 33.2895 57.664 29.3818L60.1171 20.5296Z" fill="#F7D047"/>
<path d="M46.9105 61.0651C45.828 62.3839 45.3892 63.8962 45.4776 65.3505C45.4364 65.6586 45.4152 65.9729 45.4152 66.2922V79.0418C45.4152 82.9307 48.5678 86.0833 52.4567 86.0833H79.7899C83.6788 86.0833 86.8314 82.9307 86.8314 79.0418V66.2922C86.8314 65.7204 86.7632 65.1645 86.6346 64.6322C86.5614 63.4059 86.1063 62.1679 85.2012 61.0651L71.767 44.6981C68.9124 41.2204 63.1992 41.2204 60.3447 44.6981L46.9105 61.0651Z" fill="#F7D047" stroke="#FED853" stroke-width="4.43051"/>
<path d="M62.057 46.1036C64.0253 43.7056 68.0863 43.7056 70.0547 46.1036L83.4889 62.4706C85.8426 65.3382 83.5122 69.3438 79.49 69.3438H52.6216C48.5995 69.3438 46.269 65.3382 48.6228 62.4706L62.057 46.1036Z" fill="#C9A528"/>
<path d="M47.6304 66.2922C47.6304 63.6268 49.7912 61.466 52.4567 61.466H79.7899C82.4553 61.466 84.6161 63.6268 84.6161 66.2922V79.0418C84.6161 81.7072 82.4553 83.868 79.7899 83.868H52.4567C49.7912 83.868 47.6304 81.7072 47.6304 79.0418V66.2922Z" fill="#C9A528"/>
</svg>

