<svg width="627" height="158" viewBox="0 0 627 158" fill="none" xmlns="http://www.w3.org/2000/svg">
<rect width="134.392" height="134.392" rx="19.1989" fill="#7333DD"/>
<path d="M60.1171 20.5296C61.7158 14.7604 69.8964 14.7604 71.4952 20.5296L73.9482 29.3818C75.0311 33.2895 79.6407 34.9672 82.982 32.6698L90.5512 27.4655C95.4843 24.0736 101.751 29.332 99.2674 34.7792L95.4564 43.1371C93.7742 46.8266 96.2269 51.0748 100.263 51.4627L109.407 52.3413C115.366 52.914 116.787 60.9703 111.383 63.5466L103.091 67.4995C99.4307 69.2445 98.5788 74.0754 101.422 76.967L107.861 83.5175C112.058 87.7867 107.968 94.8713 102.172 93.3712L93.2794 91.0696C89.3539 90.0535 85.5961 93.2066 85.9151 97.249L86.6376 106.406C87.1084 112.374 79.4212 115.172 75.9456 110.298L70.6129 102.819C68.2588 99.5169 63.3534 99.5169 60.9994 102.819L55.6666 110.298C52.1911 115.172 44.5038 112.374 44.9747 106.406L45.6972 97.249C46.0161 93.2066 42.2584 90.0535 38.3328 91.0696L29.4401 93.3712C23.6444 94.8713 19.5541 87.7867 23.751 83.5175L30.1907 76.967C33.0334 74.0754 32.1816 69.2445 28.5213 67.4995L20.2296 63.5466C14.8256 60.9703 16.2462 52.914 22.2054 52.3413L31.349 51.4627C35.3854 51.0748 37.8381 46.8266 36.1558 43.1371L32.3449 34.7792C29.8612 29.332 36.1279 24.0736 41.061 27.4655L48.6302 32.6698C51.9716 34.9672 56.5811 33.2895 57.664 29.3818L60.1171 20.5296Z" fill="#F7D047"/>
<path d="M46.9105 61.0651C45.828 62.3839 45.3891 63.8962 45.4776 65.3505C45.4364 65.6586 45.4152 65.9729 45.4152 66.2922V79.0418C45.4152 82.9307 48.5678 86.0833 52.4567 86.0833H79.7899C83.6788 86.0833 86.8314 82.9307 86.8314 79.0418V66.2922C86.8314 65.7204 86.7632 65.1645 86.6346 64.6322C86.5614 63.4059 86.1063 62.1679 85.2012 61.0651L71.767 44.6981C68.9124 41.2204 63.1992 41.2204 60.3447 44.6981L46.9105 61.0651Z" fill="#F7D047" stroke="#FED853" stroke-width="4.43051"/>
<path d="M62.057 46.1036C64.0253 43.7056 68.0863 43.7056 70.0546 46.1036L83.4889 62.4706C85.8426 65.3382 83.5122 69.3438 79.49 69.3438H52.6216C48.5995 69.3438 46.269 65.3382 48.6228 62.4706L62.057 46.1036Z" fill="#5D20C0"/>
<path d="M47.6304 66.2922C47.6304 63.6268 49.7912 61.466 52.4567 61.466H79.7899C82.4553 61.466 84.6161 63.6268 84.6161 66.2922V79.0418C84.6161 81.7072 82.4553 83.868 79.7899 83.868H52.4567C49.7912 83.868 47.6304 81.7072 47.6304 79.0418V66.2922Z" fill="#5D20C0"/>
<path d="M190.039 116.123L174.245 21.3591C173.607 17.4239 171.427 14.3396 167.704 12.1061L167.066 11.7871L167.385 10.1917H204.876L204.716 11.7871L202.642 12.5847C198.601 14.3928 196.899 17.3176 197.537 21.3591L207.907 93.1497L244.121 20.8805C246.142 16.6263 244.972 13.7546 240.611 12.2657L239.016 11.7871L239.335 10.1917H261.032L260.713 11.7871L258.958 12.2657C254.172 13.9674 250.609 17.1049 248.269 21.6782L200.249 116.123H190.039Z" fill="white"/>
<path fill-rule="evenodd" clip-rule="evenodd" d="M188.245 118.241L172.154 21.6982C171.629 18.4611 169.88 15.9034 166.682 13.9634L164.672 12.9582L165.649 8.07324H207.217L206.694 13.2959L203.458 14.5408C201.748 15.3146 200.728 16.233 200.166 17.1997C199.609 18.1577 199.37 19.385 199.63 21.0287L199.632 21.0425L209.038 86.1634L242.217 19.9521C243.095 18.096 243.063 16.986 242.798 16.3354C242.539 15.7015 241.822 14.9245 239.963 14.2828L236.561 13.2621L237.599 8.07324H263.616L262.533 13.4863L259.594 14.2879C255.362 15.8115 252.241 18.5673 250.156 22.6408C250.156 22.6416 250.156 22.6423 250.155 22.6431L201.549 118.241H188.245ZM248.269 21.6782C250.589 17.1444 254.11 14.0217 258.834 12.3101C258.875 12.2952 258.917 12.2804 258.958 12.2656L260.713 11.787L261.032 10.1917H239.335L239.016 11.787L240.612 12.2656C240.655 12.2803 240.697 12.2952 240.74 12.3101C244.995 13.8114 246.122 16.6682 244.121 20.8805L207.907 93.1496L197.537 21.3591C196.899 17.3176 198.601 14.3928 202.642 12.5847L204.716 11.787L204.876 10.1917H167.385L167.066 11.787L167.704 12.1061C167.816 12.1733 167.927 12.2413 168.036 12.3101C171.557 14.5261 173.626 17.5424 174.245 21.3591L190.039 116.123H200.249L248.269 21.6782Z" fill="white"/>
<path d="M247.492 117.177C244.443 117.177 241.556 116.469 238.833 115.053C236.11 113.637 233.878 111.295 232.135 108.028C230.501 104.76 229.684 100.458 229.684 95.1207C229.684 89.348 230.828 83.5753 233.115 77.8026C235.402 71.921 238.452 66.3662 242.264 61.1381C246.076 55.801 250.324 51.1175 255.008 47.0875C259.691 42.9486 264.538 39.681 269.548 37.2848C274.559 34.8886 279.297 33.6905 283.762 33.6905C285.941 33.6905 287.956 34.1262 289.807 34.9975C291.768 35.76 293.62 36.8492 295.362 38.2651L308.596 33.2004L309.903 34.0173L295.689 96.5911C294.927 99.6409 294.545 102.146 294.545 104.107C294.545 106.394 295.58 107.537 297.65 107.537C299.174 107.537 300.917 106.83 302.878 105.414C304.947 103.998 307.289 102.092 309.903 99.6953L311.21 101.002C309.576 103.616 307.507 106.176 305.002 108.681C302.605 111.077 299.882 113.092 296.833 114.726C293.892 116.36 290.733 117.177 287.357 117.177C283.653 117.177 280.658 116.088 278.371 113.909C276.084 111.622 274.94 108.137 274.94 103.453C274.94 101.928 274.994 100.458 275.103 99.0418C270.747 103.943 266.118 108.191 261.216 111.785C256.424 115.38 251.849 117.177 247.492 117.177ZM248.963 87.7687C248.963 93.5414 249.889 97.7348 251.74 100.349C253.701 102.854 256.26 104.107 259.419 104.107C262.033 104.107 264.647 103.29 267.261 101.656C269.875 100.022 272.707 97.6803 275.757 94.6306C275.975 93.3236 276.247 91.9621 276.574 90.5462L286.867 43.4932C285.451 41.7505 283.762 40.5524 281.802 39.8989C279.841 39.2454 278.099 38.9186 276.574 38.9186C271.89 38.9186 266.989 41.696 261.87 47.2509C257.84 51.7166 254.681 57.5982 252.394 64.8958C250.106 72.1933 248.963 79.8176 248.963 87.7687Z" fill="white"/>
<path fill-rule="evenodd" clip-rule="evenodd" d="M238.833 115.053C241.556 116.469 244.443 117.177 247.492 117.177C251.849 117.177 256.424 115.38 261.216 111.786C265.263 108.818 269.123 105.405 272.799 101.547C273.575 100.732 274.343 99.8969 275.103 99.042C275.019 100.139 274.967 101.268 274.948 102.431C274.943 102.769 274.94 103.11 274.94 103.453C274.94 108.137 276.084 111.622 278.371 113.909C280.658 116.088 283.653 117.177 287.357 117.177C290.733 117.177 293.892 116.36 296.833 114.726C299.882 113.093 302.605 111.078 305.002 108.681C307.167 106.516 309.006 104.31 310.521 102.064C310.743 101.734 310.958 101.404 311.166 101.073C311.181 101.05 311.195 101.026 311.21 101.003L309.903 99.6955C309.796 99.7933 309.69 99.8903 309.584 99.9865C309.344 100.205 309.106 100.419 308.87 100.63C306.668 102.592 304.671 104.187 302.878 105.414C300.917 106.83 299.174 107.538 297.65 107.538C295.58 107.538 294.545 106.394 294.545 104.107C294.545 102.146 294.927 99.641 295.689 96.5913L309.903 34.0174L308.596 33.2006L295.362 38.2653C293.62 36.8493 291.768 35.7601 289.807 34.9977C287.956 34.1264 285.941 33.6907 283.762 33.6907C279.297 33.6907 274.559 34.8888 269.549 37.285C264.538 39.6812 259.691 42.9488 255.008 47.0877C250.324 51.1177 246.076 55.8012 242.264 61.1382C238.452 66.3663 235.402 71.9212 233.115 77.8028C230.828 83.5755 229.684 89.3482 229.684 95.1209C229.684 100.458 230.501 104.76 232.135 108.028C233.878 111.295 236.11 113.637 238.833 115.053ZM231.096 77.0093C233.451 70.9542 236.59 65.2397 240.505 59.8684C244.408 54.4064 248.766 49.5982 253.582 45.4525C258.394 41.2013 263.404 37.819 268.612 35.3278C273.846 32.8251 278.904 31.5212 283.762 31.5212C286.213 31.5212 288.523 32.0083 290.663 33.0027C292.442 33.7017 294.129 34.6386 295.723 35.8043L308.83 30.7882L312.36 32.9948L297.799 97.0948L297.794 97.1175C297.052 100.085 296.715 102.397 296.715 104.107C296.715 104.967 296.914 105.207 296.93 105.224C296.937 105.232 296.96 105.257 297.041 105.288C297.138 105.323 297.326 105.368 297.65 105.368C298.521 105.368 299.816 104.949 301.607 103.655L301.63 103.639L301.653 103.623C303.611 102.284 305.87 100.449 308.437 98.0963L309.968 96.6927L313.964 100.689L313.05 102.152C311.317 104.924 309.14 107.611 306.536 110.215C303.99 112.761 301.099 114.9 297.871 116.631C294.611 118.439 291.095 119.346 287.357 119.346C283.199 119.346 279.634 118.108 276.875 115.48L276.856 115.462L276.837 115.443C274.223 112.829 272.98 109.121 272.795 104.659C269.514 107.947 266.085 110.905 262.508 113.528C257.482 117.296 252.463 119.346 247.492 119.346C244.092 119.346 240.863 118.554 237.832 116.978C234.646 115.321 232.126 112.622 230.221 109.049L230.207 109.024L230.194 108.998C228.357 105.323 227.515 100.651 227.515 95.1209C227.515 89.0564 228.717 83.0151 231.096 77.0093ZM251.74 100.349C249.889 97.735 248.963 93.5416 248.963 87.7689C248.963 79.8178 250.106 72.1935 252.394 64.8959C254.681 57.5984 257.84 51.7168 261.87 47.2511C266.989 41.6962 271.89 38.9188 276.574 38.9188C278.099 38.9188 279.841 39.2455 281.802 39.8991C283.762 40.5526 285.451 41.7507 286.867 43.4934L276.574 90.5463C276.247 91.9623 275.975 93.3238 275.757 94.6308C272.707 97.6805 269.875 100.022 267.261 101.656C264.647 103.29 262.033 104.107 259.419 104.107C256.26 104.107 253.701 102.854 251.74 100.349ZM253.481 99.0534C255.029 101.009 256.951 101.937 259.419 101.937C261.558 101.937 263.779 101.274 266.111 99.8163C268.41 98.3795 270.952 96.3137 273.737 93.5783C273.939 92.4435 274.179 91.2743 274.457 90.071C274.458 90.0668 274.459 90.0627 274.46 90.0585L284.511 44.1086C283.498 43.0769 282.367 42.3744 281.116 41.9572C279.303 41.353 277.799 41.0883 276.574 41.0883C272.784 41.0883 268.423 43.3445 263.473 48.7129C259.704 52.8917 256.681 58.472 254.464 65.5448C252.245 72.6241 251.132 80.0291 251.132 87.7689C251.132 93.3693 252.043 96.9913 253.481 99.0534Z" fill="white"/>
<path d="M327.328 108.157L327.333 108.162C335.694 115.911 347.213 119.727 361.761 119.727C367.668 119.727 372.86 119.127 377.325 117.911C381.837 116.807 386.297 115.303 390.704 113.4L391.185 113.192L391.282 112.677L397.676 78.9263C397.676 78.925 397.676 78.9237 397.677 78.9225C398.41 75.1692 400.429 72.679 403.77 71.3246L403.789 71.3169L403.807 71.3084L407.079 69.8213L407.539 69.6121L407.638 69.1161L407.936 67.6291L408.172 66.4481H406.968H366.668H365.859L365.7 67.2418L365.402 68.7289L365.229 69.5954L366.071 69.8634L369.341 70.9036C369.341 70.9037 369.341 70.9038 369.342 70.9039C371.824 71.7002 373.436 72.8747 374.34 74.3466C375.241 75.8139 375.531 77.7266 375.066 80.1899L375.061 80.2185L375.057 80.2474C374.563 84.1005 373.97 88.1033 373.278 92.2559C372.585 96.4143 371.991 100.08 371.495 103.252L370.606 107.845L370.603 107.86L370.601 107.875C370.123 110.836 369.155 112.593 367.899 113.461C366.631 114.303 364.816 114.778 362.355 114.778C357.838 114.778 353.799 113.28 350.203 110.251C346.597 107.215 343.657 102.812 341.42 96.979C339.291 91.168 338.211 84.2027 338.211 76.0604C338.211 65.0529 339.833 55.3108 343.054 46.8179L343.056 46.8144C346.281 38.2142 350.755 31.5263 356.451 26.6994L356.451 26.6995L356.458 26.6931C362.13 21.79 368.643 19.3495 376.037 19.3495C380.912 19.3495 384.187 20.2842 386.098 21.9348L386.116 21.9504L386.135 21.9651C388.196 23.5784 390.049 26.5408 391.61 31.0292L391.613 31.0364L391.616 31.0437L397.266 46.5092L397.503 47.1577H398.194H399.681H400.529L400.657 46.3195L404.226 22.9725L404.33 22.2937L403.729 21.9603C394.657 16.9202 384.826 14.4007 374.252 14.4007C365.801 14.4007 357.935 15.9605 350.666 19.0897C343.509 22.1145 337.205 26.4015 331.761 31.9463L331.761 31.9463L331.754 31.9529C326.409 37.5003 322.227 44.0027 319.208 51.4503L319.205 51.4567C316.28 58.8203 314.823 66.8268 314.823 75.4656C314.823 89.3529 318.957 100.296 327.328 108.157Z" fill="white" stroke="white" stroke-width="1.97466"/>
<mask id="path-10-outside-1_74_38" maskUnits="userSpaceOnUse" x="402.181" y="3.73615" width="225" height="154" fill="black">
<rect fill="white" x="402.181" y="3.73615" width="225" height="154"/>
<path d="M434.038 120.446C428.533 120.446 423.503 119.388 418.951 117.27C414.398 115.047 410.798 111.765 408.151 107.424C405.505 102.977 404.181 97.3656 404.181 90.5895C404.181 83.8135 405.293 77.3551 407.516 71.2143C409.845 65.0735 413.075 59.621 417.204 54.8566C421.333 49.9863 426.15 46.1748 431.656 43.422C437.161 40.6692 443.143 39.2929 449.602 39.2929C455.213 39.2929 460.189 40.4046 464.53 42.6279C468.977 44.7455 472.471 47.9747 475.012 52.3156C477.659 56.6564 478.982 62.2149 478.982 68.9909C478.982 75.6611 477.818 82.1195 475.488 88.3662C473.265 94.5069 470.089 100.012 465.96 104.883C461.936 109.647 457.172 113.459 451.666 116.317C446.267 119.07 440.391 120.446 434.038 120.446ZM435.944 117.27C439.226 117.27 442.19 115.788 444.837 112.823C447.59 109.753 449.972 105.73 451.984 100.754C453.996 95.6716 455.531 90.1131 456.59 84.0782C457.648 77.9374 458.178 71.8496 458.178 65.8147C458.178 57.027 457.278 50.9392 455.478 47.5512C453.678 44.1631 451.349 42.4691 448.49 42.4691C445.102 42.4691 441.979 43.9514 439.12 46.9159C436.261 49.8804 433.773 53.8507 431.656 58.8269C429.538 63.803 427.897 69.3086 426.733 75.3435C425.568 81.3784 424.986 87.4133 424.986 93.4482C424.986 102.448 426.044 108.694 428.162 112.188C430.279 115.576 432.873 117.27 435.944 117.27Z"/>
<path d="M491.938 155.544C483.044 155.544 476.004 154.168 470.816 151.415C465.734 148.662 463.193 144.639 463.193 139.345C463.193 136.063 464.357 133.046 466.687 130.293C469.016 127.646 471.874 125.317 475.262 123.305C478.756 121.293 482.303 119.705 485.903 118.541C482.303 117.588 479.497 116.317 477.486 114.729C475.474 113.035 474.468 110.918 474.468 108.377C474.468 105.836 475.951 102.871 478.915 99.4831C481.986 95.9892 485.585 92.6541 489.714 89.4779C486.644 87.3603 484.315 84.7135 482.727 81.5372C481.139 78.3609 480.345 75.0258 480.345 71.532C480.345 65.7088 481.827 60.3621 484.791 55.4918C487.756 50.6215 491.726 46.7041 496.702 43.7396C501.784 40.7751 507.343 39.2929 513.378 39.2929C517.401 39.2929 521.107 39.8752 524.495 41.0398C527.988 42.0986 530.9 43.7396 533.229 45.963C536.617 45.4336 539.847 44.6396 542.917 43.5808C546.093 42.4162 549.111 40.9869 551.969 39.2929L553.081 40.4046L551.493 48.6628H535.612C538.153 52.0509 539.423 56.1271 539.423 60.8915C539.423 67.3499 537.994 73.0672 535.135 78.0433C532.382 83.0194 528.518 86.9368 523.542 89.7955C518.566 92.5482 512.742 93.9246 506.072 93.9246C500.99 93.9246 496.491 92.9717 492.573 91.066L490.191 95.0363C489.344 96.3068 489.079 97.5773 489.397 98.8478C489.714 100.118 490.826 100.912 492.732 101.23L518.777 106.471C527.565 108.271 533.706 110.6 537.2 113.459C540.799 116.317 542.599 120.235 542.599 125.211C542.599 131.14 540.376 136.381 535.929 140.933C531.588 145.486 525.606 149.033 517.983 151.574C510.36 154.221 501.678 155.544 491.938 155.544ZM508.931 90.7484C512.425 90.7484 515.389 88.7367 517.824 84.7135C520.365 80.6902 521.636 73.7024 521.636 63.7501C521.636 56.9741 520.736 51.7332 518.936 48.0276C517.136 44.322 514.86 42.4691 512.107 42.4691C507.872 42.575 504.643 45.0631 502.42 49.9334C500.196 54.6978 499.084 61.1032 499.084 69.1498C499.084 74.9729 499.826 80.0549 501.308 84.3958C502.896 88.7367 505.437 90.8542 508.931 90.7484ZM479.233 133.787C479.233 139.081 481.139 143.21 484.95 146.174C488.762 149.245 493.897 150.78 500.355 150.78C508.507 150.78 514.913 149.403 519.571 146.651C524.23 143.898 526.559 139.928 526.559 134.74C526.559 131.669 525.183 129.234 522.43 127.434C519.783 125.634 515.072 124.099 508.296 122.829L489.714 119.335C489.185 119.229 488.709 119.123 488.285 119.017C485.532 120.711 483.309 122.776 481.615 125.211C480.027 127.752 479.233 130.61 479.233 133.787Z"/>
<path d="M544.117 119.017L543.164 118.064L557.616 48.8217C558.463 44.7984 559.204 41.1986 559.839 38.0224C560.474 34.7402 561.163 31.0875 561.904 27.0642C562.751 22.5116 561.004 19.4941 556.663 18.0119L554.122 17.2178L554.44 15.6297L584.773 6.73615L585.885 7.84784L575.085 58.5093C580.379 53.0037 585.99 48.4511 591.919 44.8513C597.954 41.1457 603.513 39.2929 608.595 39.2929C611.983 39.2929 614.736 40.3516 616.853 42.4691C619.077 44.4808 620.188 47.657 620.188 51.9979C620.188 54.2213 619.976 56.5506 619.553 58.9857C619.129 61.315 618.6 63.7501 617.965 66.2911L610.024 98.689C609.601 100.701 609.177 102.448 608.754 103.93C608.33 105.306 608.118 106.418 608.118 107.265C608.118 109.488 609.071 110.6 610.977 110.6C613.73 110.6 617.594 108.271 622.57 103.612L624 105.042C621.459 108.959 618.018 112.506 613.677 115.682C609.336 118.858 604.413 120.446 598.907 120.446C595.413 120.446 592.714 119.652 590.808 118.064C588.902 116.37 587.949 114.041 587.949 111.076C587.949 108.853 588.214 106.577 588.743 104.247C589.273 101.812 589.908 99.3243 590.649 96.7833L597.796 68.8321C598.537 65.9735 599.172 63.3795 599.701 61.0503C600.337 58.6151 600.654 56.5506 600.654 54.8566C600.654 51.1509 598.907 49.2981 595.413 49.2981C590.225 49.2981 583.397 53.5331 574.926 62.0032L570.162 84.0782C568.786 90.5366 567.568 96.4127 566.509 101.706C565.556 106.894 564.604 112.347 563.651 118.064L544.117 119.017Z"/>
</mask>
<path d="M434.038 120.446C428.533 120.446 423.503 119.388 418.951 117.27C414.398 115.047 410.798 111.765 408.151 107.424C405.505 102.977 404.181 97.3656 404.181 90.5895C404.181 83.8135 405.293 77.3551 407.516 71.2143C409.845 65.0735 413.075 59.621 417.204 54.8566C421.333 49.9863 426.15 46.1748 431.656 43.422C437.161 40.6692 443.143 39.2929 449.602 39.2929C455.213 39.2929 460.189 40.4046 464.53 42.6279C468.977 44.7455 472.471 47.9747 475.012 52.3156C477.659 56.6564 478.982 62.2149 478.982 68.9909C478.982 75.6611 477.818 82.1195 475.488 88.3662C473.265 94.5069 470.089 100.012 465.96 104.883C461.936 109.647 457.172 113.459 451.666 116.317C446.267 119.07 440.391 120.446 434.038 120.446ZM435.944 117.27C439.226 117.27 442.19 115.788 444.837 112.823C447.59 109.753 449.972 105.73 451.984 100.754C453.996 95.6716 455.531 90.1131 456.59 84.0782C457.648 77.9374 458.178 71.8496 458.178 65.8147C458.178 57.027 457.278 50.9392 455.478 47.5512C453.678 44.1631 451.349 42.4691 448.49 42.4691C445.102 42.4691 441.979 43.9514 439.12 46.9159C436.261 49.8804 433.773 53.8507 431.656 58.8269C429.538 63.803 427.897 69.3086 426.733 75.3435C425.568 81.3784 424.986 87.4133 424.986 93.4482C424.986 102.448 426.044 108.694 428.162 112.188C430.279 115.576 432.873 117.27 435.944 117.27Z" fill="white"/>
<path d="M491.938 155.544C483.044 155.544 476.004 154.168 470.816 151.415C465.734 148.662 463.193 144.639 463.193 139.345C463.193 136.063 464.357 133.046 466.687 130.293C469.016 127.646 471.874 125.317 475.262 123.305C478.756 121.293 482.303 119.705 485.903 118.541C482.303 117.588 479.497 116.317 477.486 114.729C475.474 113.035 474.468 110.918 474.468 108.377C474.468 105.836 475.951 102.871 478.915 99.4831C481.986 95.9892 485.585 92.6541 489.714 89.4779C486.644 87.3603 484.315 84.7135 482.727 81.5372C481.139 78.3609 480.345 75.0258 480.345 71.532C480.345 65.7088 481.827 60.3621 484.791 55.4918C487.756 50.6215 491.726 46.7041 496.702 43.7396C501.784 40.7751 507.343 39.2929 513.378 39.2929C517.401 39.2929 521.107 39.8752 524.495 41.0398C527.988 42.0986 530.9 43.7396 533.229 45.963C536.617 45.4336 539.847 44.6396 542.917 43.5808C546.093 42.4162 549.111 40.9869 551.969 39.2929L553.081 40.4046L551.493 48.6628H535.612C538.153 52.0509 539.423 56.1271 539.423 60.8915C539.423 67.3499 537.994 73.0672 535.135 78.0433C532.382 83.0194 528.518 86.9368 523.542 89.7955C518.566 92.5482 512.742 93.9246 506.072 93.9246C500.99 93.9246 496.491 92.9717 492.573 91.066L490.191 95.0363C489.344 96.3068 489.079 97.5773 489.397 98.8478C489.714 100.118 490.826 100.912 492.732 101.23L518.777 106.471C527.565 108.271 533.706 110.6 537.2 113.459C540.799 116.317 542.599 120.235 542.599 125.211C542.599 131.14 540.376 136.381 535.929 140.933C531.588 145.486 525.606 149.033 517.983 151.574C510.36 154.221 501.678 155.544 491.938 155.544ZM508.931 90.7484C512.425 90.7484 515.389 88.7367 517.824 84.7135C520.365 80.6902 521.636 73.7024 521.636 63.7501C521.636 56.9741 520.736 51.7332 518.936 48.0276C517.136 44.322 514.86 42.4691 512.107 42.4691C507.872 42.575 504.643 45.0631 502.42 49.9334C500.196 54.6978 499.084 61.1032 499.084 69.1498C499.084 74.9729 499.826 80.0549 501.308 84.3958C502.896 88.7367 505.437 90.8542 508.931 90.7484ZM479.233 133.787C479.233 139.081 481.139 143.21 484.95 146.174C488.762 149.245 493.897 150.78 500.355 150.78C508.507 150.78 514.913 149.403 519.571 146.651C524.23 143.898 526.559 139.928 526.559 134.74C526.559 131.669 525.183 129.234 522.43 127.434C519.783 125.634 515.072 124.099 508.296 122.829L489.714 119.335C489.185 119.229 488.709 119.123 488.285 119.017C485.532 120.711 483.309 122.776 481.615 125.211C480.027 127.752 479.233 130.61 479.233 133.787Z" fill="white"/>
<path d="M544.117 119.017L543.164 118.064L557.616 48.8217C558.463 44.7984 559.204 41.1986 559.839 38.0224C560.474 34.7402 561.163 31.0875 561.904 27.0642C562.751 22.5116 561.004 19.4941 556.663 18.0119L554.122 17.2178L554.44 15.6297L584.773 6.73615L585.885 7.84784L575.085 58.5093C580.379 53.0037 585.99 48.4511 591.919 44.8513C597.954 41.1457 603.513 39.2929 608.595 39.2929C611.983 39.2929 614.736 40.3516 616.853 42.4691C619.077 44.4808 620.188 47.657 620.188 51.9979C620.188 54.2213 619.976 56.5506 619.553 58.9857C619.129 61.315 618.6 63.7501 617.965 66.2911L610.024 98.689C609.601 100.701 609.177 102.448 608.754 103.93C608.33 105.306 608.118 106.418 608.118 107.265C608.118 109.488 609.071 110.6 610.977 110.6C613.73 110.6 617.594 108.271 622.57 103.612L624 105.042C621.459 108.959 618.018 112.506 613.677 115.682C609.336 118.858 604.413 120.446 598.907 120.446C595.413 120.446 592.714 119.652 590.808 118.064C588.902 116.37 587.949 114.041 587.949 111.076C587.949 108.853 588.214 106.577 588.743 104.247C589.273 101.812 589.908 99.3243 590.649 96.7833L597.796 68.8321C598.537 65.9735 599.172 63.3795 599.701 61.0503C600.337 58.6151 600.654 56.5506 600.654 54.8566C600.654 51.1509 598.907 49.2981 595.413 49.2981C590.225 49.2981 583.397 53.5331 574.926 62.0032L570.162 84.0782C568.786 90.5366 567.568 96.4127 566.509 101.706C565.556 106.894 564.604 112.347 563.651 118.064L544.117 119.017Z" fill="white"/>
<path d="M434.038 120.446C428.533 120.446 423.503 119.388 418.951 117.27C414.398 115.047 410.798 111.765 408.151 107.424C405.505 102.977 404.181 97.3656 404.181 90.5895C404.181 83.8135 405.293 77.3551 407.516 71.2143C409.845 65.0735 413.075 59.621 417.204 54.8566C421.333 49.9863 426.15 46.1748 431.656 43.422C437.161 40.6692 443.143 39.2929 449.602 39.2929C455.213 39.2929 460.189 40.4046 464.53 42.6279C468.977 44.7455 472.471 47.9747 475.012 52.3156C477.659 56.6564 478.982 62.2149 478.982 68.9909C478.982 75.6611 477.818 82.1195 475.488 88.3662C473.265 94.5069 470.089 100.012 465.96 104.883C461.936 109.647 457.172 113.459 451.666 116.317C446.267 119.07 440.391 120.446 434.038 120.446ZM435.944 117.27C439.226 117.27 442.19 115.788 444.837 112.823C447.59 109.753 449.972 105.73 451.984 100.754C453.996 95.6716 455.531 90.1131 456.59 84.0782C457.648 77.9374 458.178 71.8496 458.178 65.8147C458.178 57.027 457.278 50.9392 455.478 47.5512C453.678 44.1631 451.349 42.4691 448.49 42.4691C445.102 42.4691 441.979 43.9514 439.12 46.9159C436.261 49.8804 433.773 53.8507 431.656 58.8269C429.538 63.803 427.897 69.3086 426.733 75.3435C425.568 81.3784 424.986 87.4133 424.986 93.4482C424.986 102.448 426.044 108.694 428.162 112.188C430.279 115.576 432.873 117.27 435.944 117.27Z" stroke="white" stroke-width="3.94932" mask="url(#path-10-outside-1_74_38)"/>
<path d="M491.938 155.544C483.044 155.544 476.004 154.168 470.816 151.415C465.734 148.662 463.193 144.639 463.193 139.345C463.193 136.063 464.357 133.046 466.687 130.293C469.016 127.646 471.874 125.317 475.262 123.305C478.756 121.293 482.303 119.705 485.903 118.541C482.303 117.588 479.497 116.317 477.486 114.729C475.474 113.035 474.468 110.918 474.468 108.377C474.468 105.836 475.951 102.871 478.915 99.4831C481.986 95.9892 485.585 92.6541 489.714 89.4779C486.644 87.3603 484.315 84.7135 482.727 81.5372C481.139 78.3609 480.345 75.0258 480.345 71.532C480.345 65.7088 481.827 60.3621 484.791 55.4918C487.756 50.6215 491.726 46.7041 496.702 43.7396C501.784 40.7751 507.343 39.2929 513.378 39.2929C517.401 39.2929 521.107 39.8752 524.495 41.0398C527.988 42.0986 530.9 43.7396 533.229 45.963C536.617 45.4336 539.847 44.6396 542.917 43.5808C546.093 42.4162 549.111 40.9869 551.969 39.2929L553.081 40.4046L551.493 48.6628H535.612C538.153 52.0509 539.423 56.1271 539.423 60.8915C539.423 67.3499 537.994 73.0672 535.135 78.0433C532.382 83.0194 528.518 86.9368 523.542 89.7955C518.566 92.5482 512.742 93.9246 506.072 93.9246C500.99 93.9246 496.491 92.9717 492.573 91.066L490.191 95.0363C489.344 96.3068 489.079 97.5773 489.397 98.8478C489.714 100.118 490.826 100.912 492.732 101.23L518.777 106.471C527.565 108.271 533.706 110.6 537.2 113.459C540.799 116.317 542.599 120.235 542.599 125.211C542.599 131.14 540.376 136.381 535.929 140.933C531.588 145.486 525.606 149.033 517.983 151.574C510.36 154.221 501.678 155.544 491.938 155.544ZM508.931 90.7484C512.425 90.7484 515.389 88.7367 517.824 84.7135C520.365 80.6902 521.636 73.7024 521.636 63.7501C521.636 56.9741 520.736 51.7332 518.936 48.0276C517.136 44.322 514.86 42.4691 512.107 42.4691C507.872 42.575 504.643 45.0631 502.42 49.9334C500.196 54.6978 499.084 61.1032 499.084 69.1498C499.084 74.9729 499.826 80.0549 501.308 84.3958C502.896 88.7367 505.437 90.8542 508.931 90.7484ZM479.233 133.787C479.233 139.081 481.139 143.21 484.95 146.174C488.762 149.245 493.897 150.78 500.355 150.78C508.507 150.78 514.913 149.403 519.571 146.651C524.23 143.898 526.559 139.928 526.559 134.74C526.559 131.669 525.183 129.234 522.43 127.434C519.783 125.634 515.072 124.099 508.296 122.829L489.714 119.335C489.185 119.229 488.709 119.123 488.285 119.017C485.532 120.711 483.309 122.776 481.615 125.211C480.027 127.752 479.233 130.61 479.233 133.787Z" stroke="white" stroke-width="3.94932" mask="url(#path-10-outside-1_74_38)"/>
<path d="M544.117 119.017L543.164 118.064L557.616 48.8217C558.463 44.7984 559.204 41.1986 559.839 38.0224C560.474 34.7402 561.163 31.0875 561.904 27.0642C562.751 22.5116 561.004 19.4941 556.663 18.0119L554.122 17.2178L554.44 15.6297L584.773 6.73615L585.885 7.84784L575.085 58.5093C580.379 53.0037 585.99 48.4511 591.919 44.8513C597.954 41.1457 603.513 39.2929 608.595 39.2929C611.983 39.2929 614.736 40.3516 616.853 42.4691C619.077 44.4808 620.188 47.657 620.188 51.9979C620.188 54.2213 619.976 56.5506 619.553 58.9857C619.129 61.315 618.6 63.7501 617.965 66.2911L610.024 98.689C609.601 100.701 609.177 102.448 608.754 103.93C608.33 105.306 608.118 106.418 608.118 107.265C608.118 109.488 609.071 110.6 610.977 110.6C613.73 110.6 617.594 108.271 622.57 103.612L624 105.042C621.459 108.959 618.018 112.506 613.677 115.682C609.336 118.858 604.413 120.446 598.907 120.446C595.413 120.446 592.714 119.652 590.808 118.064C588.902 116.37 587.949 114.041 587.949 111.076C587.949 108.853 588.214 106.577 588.743 104.247C589.273 101.812 589.908 99.3243 590.649 96.7833L597.796 68.8321C598.537 65.9735 599.172 63.3795 599.701 61.0503C600.337 58.6151 600.654 56.5506 600.654 54.8566C600.654 51.1509 598.907 49.2981 595.413 49.2981C590.225 49.2981 583.397 53.5331 574.926 62.0032L570.162 84.0782C568.786 90.5366 567.568 96.4127 566.509 101.706C565.556 106.894 564.604 112.347 563.651 118.064L544.117 119.017Z" stroke="white" stroke-width="3.94932" mask="url(#path-10-outside-1_74_38)"/>
<path d="M323.824 78.9268L305.773 100.32C302.653 106.114 297.75 116.766 303.099 113.023C308.447 109.279 319.144 94.0805 323.824 86.9494V78.9268Z" fill="white"/>
</svg>
