<svg width="705" height="165" viewBox="0 0 705 165" fill="none" xmlns="http://www.w3.org/2000/svg">
<path d="M111.466 44.8703C128.614 96.3271 116.824 95.6685 124.827 117.496L117.902 134.155C105.326 100.753 113.966 143.515 103.677 120.946C93.9666 132.504 87.5817 136.747 78.7856 128.123C78.7856 128.123 114.246 96.9979 89.1703 117.496C64.0951 137.995 52.5527 108.971 52.5527 108.971L67.7862 99.7226C41.8507 108.379 33.9574 96.8031 22.6452 69.3194L45.3414 68.3932C11.649 60.3324 4.90291 41.7138 0 0.227936C47.0865 21.6424 74.3102 31.329 111.466 44.8703Z" fill="#7333DD"/>
<path d="M111.466 44.8703C94.3171 96.3271 106.74 95.6685 98.7371 117.496L108.744 134.155C121.32 100.753 109.598 143.515 119.887 120.946C129.597 132.504 135.982 136.747 144.778 128.122C144.778 128.122 109.318 96.9979 134.394 117.496C159.469 137.995 171.011 108.971 171.011 108.971L155.778 99.7226C181.713 108.379 189.606 96.8031 200.919 69.3194L178.222 68.3932C211.915 60.3324 218.661 41.7138 223.564 0.227936C176.477 21.6424 148.621 31.329 111.466 44.8703Z" fill="#7333DD"/>
<path d="M133.927 150.866C135.381 150.866 136.35 149.365 135.751 148.041L123.904 121.809C119.037 111.033 103.734 111.033 98.867 121.809L90.4993 140.336C88.2694 145.273 91.8801 150.866 97.2976 150.866L133.927 150.866Z" fill="#0F172A"/>
<path d="M105.367 22.0005C109.1 24.116 113.671 24.116 117.405 22.0005L128.995 15.4337C130.695 14.4704 132.616 13.9641 134.57 13.9641C146.623 13.9641 150.314 30.3049 139.43 35.4851L136.395 36.9297C133.333 38.3872 131.025 41.0659 130.037 44.31L123.066 67.1959C119.551 78.7318 103.22 78.7317 99.7056 67.1959L92.734 44.31C91.7457 41.0659 89.4381 38.3872 86.376 36.9297L83.3409 35.4851C72.4575 30.3049 76.1481 13.9641 88.2014 13.9641C90.1556 13.9641 92.0764 14.4704 93.7766 15.4337L105.367 22.0005Z" fill="#0F172A"/>
<path d="M268.039 123.351L252.245 28.587C251.607 24.6518 249.427 21.5675 245.704 19.334L245.066 19.015L245.385 17.4196H282.876L282.716 19.015L280.642 19.8126C276.601 21.6207 274.899 24.5455 275.537 28.587L285.907 100.378L322.121 28.1084C324.142 23.8542 322.972 20.9826 318.611 19.4936L317.016 19.015L317.335 17.4196H339.032L338.713 19.015L336.958 19.4936C332.172 21.1953 328.609 24.3328 326.269 28.9061L278.249 123.351H268.039Z" fill="white"/>
<path fill-rule="evenodd" clip-rule="evenodd" d="M266.245 125.469L250.154 28.9261C249.629 25.689 247.88 23.1313 244.682 21.1913L242.672 20.1861L243.649 15.3011H285.217L284.694 20.5238L281.458 21.7687C279.748 22.5425 278.728 23.4609 278.166 24.4276C277.609 25.3856 277.37 26.6129 277.63 28.2566L277.632 28.2704L287.038 93.3913L320.217 27.18C321.095 25.3239 321.063 24.2139 320.798 23.5633C320.539 22.9294 319.822 22.1524 317.963 21.5107L314.561 20.49L315.599 15.3011H341.616L340.533 20.7142L337.594 21.5158C333.362 23.0394 330.241 25.7952 328.156 29.8687C328.156 29.8695 328.156 29.8702 328.155 29.871L279.549 125.469H266.245ZM326.269 28.9061C328.589 24.3723 332.11 21.2496 336.834 19.538C336.875 19.5231 336.917 19.5083 336.958 19.4935L338.713 19.0149L339.032 17.4196H317.335L317.016 19.0149L318.612 19.4935C318.655 19.5082 318.697 19.5231 318.74 19.538C322.995 21.0393 324.122 23.8961 322.121 28.1084L285.907 100.378L275.537 28.587C274.899 24.5455 276.601 21.6207 280.642 19.8126L282.716 19.0149L282.876 17.4196H245.385L245.066 19.0149L245.704 19.334C245.816 19.4012 245.927 19.4693 246.036 19.538C249.557 21.754 251.626 24.7703 252.245 28.587L268.039 123.351H278.249L326.269 28.9061Z" fill="white"/>
<path d="M325.492 124.405C322.443 124.405 319.556 123.697 316.833 122.281C314.11 120.865 311.878 118.523 310.135 115.256C308.501 111.988 307.684 107.686 307.684 102.349C307.684 96.5759 308.828 90.8032 311.115 85.0306C313.402 79.1489 316.452 73.5941 320.264 68.366C324.076 63.0289 328.324 58.3454 333.008 54.3154C337.691 50.1765 342.538 46.9089 347.549 44.5127C352.559 42.1165 357.297 40.9184 361.762 40.9184C363.941 40.9184 365.956 41.3541 367.807 42.2254C369.768 42.9879 371.62 44.0771 373.362 45.493L386.596 40.4283L387.903 41.2452L373.689 103.819C372.927 106.869 372.545 109.374 372.545 111.334C372.545 113.622 373.58 114.765 375.65 114.765C377.174 114.765 378.917 114.057 380.878 112.641C382.947 111.226 385.289 109.319 387.903 106.923L389.21 108.23C387.576 110.844 385.507 113.404 383.002 115.909C380.605 118.305 377.882 120.32 374.833 121.954C371.892 123.588 368.733 124.405 365.357 124.405C361.653 124.405 358.658 123.316 356.371 121.137C354.084 118.85 352.94 115.364 352.94 110.681C352.94 109.156 352.994 107.686 353.103 106.27C348.747 111.171 344.118 115.419 339.216 119.013C334.424 122.608 329.849 124.405 325.492 124.405ZM326.963 94.9966C326.963 100.769 327.889 104.963 329.74 107.577C331.701 110.082 334.26 111.334 337.419 111.334C340.033 111.334 342.647 110.518 345.261 108.884C347.875 107.25 350.707 104.908 353.757 101.859C353.975 100.551 354.247 99.19 354.574 97.7741L364.867 50.7211C363.451 48.9784 361.762 47.7803 359.802 47.1268C357.841 46.4733 356.099 46.1465 354.574 46.1465C349.89 46.1465 344.989 48.9239 339.87 54.4788C335.84 58.9445 332.681 64.8261 330.394 72.1237C328.106 79.4212 326.963 87.0456 326.963 94.9966Z" fill="white"/>
<path fill-rule="evenodd" clip-rule="evenodd" d="M316.833 122.281C319.556 123.697 322.443 124.405 325.492 124.405C329.849 124.405 334.424 122.608 339.216 119.013C343.263 116.046 347.124 112.633 350.799 108.775C351.575 107.96 352.343 107.125 353.103 106.27C353.019 107.367 352.967 108.496 352.948 109.659C352.943 109.997 352.94 110.338 352.94 110.681C352.94 115.365 354.084 118.85 356.371 121.137C358.658 123.316 361.654 124.405 365.357 124.405C368.733 124.405 371.892 123.588 374.833 121.954C377.882 120.32 380.605 118.305 383.002 115.909C385.167 113.744 387.007 111.538 388.521 109.292C388.743 108.962 388.958 108.632 389.166 108.301C389.181 108.278 389.195 108.254 389.21 108.23L387.903 106.923C387.796 107.021 387.69 107.118 387.584 107.214C387.344 107.433 387.106 107.647 386.87 107.857C384.668 109.82 382.671 111.415 380.878 112.642C378.917 114.058 377.174 114.766 375.65 114.766C373.58 114.766 372.545 113.622 372.545 111.335C372.545 109.374 372.927 106.869 373.689 103.819L387.903 41.2453L386.596 40.4285L373.362 45.4932C371.62 44.0772 369.768 42.988 367.807 42.2256C365.956 41.3543 363.941 40.9186 361.762 40.9186C357.297 40.9186 352.559 42.1167 347.549 44.5129C342.538 46.9091 337.691 50.1767 333.008 54.3156C328.324 58.3456 324.077 63.0291 320.264 68.3661C316.452 73.5942 313.402 79.1491 311.115 85.0307C308.828 90.8034 307.684 96.5761 307.684 102.349C307.684 107.686 308.501 111.988 310.135 115.256C311.878 118.523 314.11 120.865 316.833 122.281ZM309.096 84.2372C311.452 78.1821 314.59 72.4676 318.505 67.0963C322.408 61.6343 326.766 56.8261 331.582 52.6804C336.394 48.4292 341.404 45.0469 346.613 42.5557C351.846 40.053 356.904 38.7491 361.762 38.7491C364.213 38.7491 366.523 39.2362 368.663 40.2306C370.442 40.9296 372.129 41.8665 373.723 43.0322L386.83 38.0161L390.36 40.2227L375.799 104.323L375.794 104.345C375.052 107.313 374.715 109.625 374.715 111.335C374.715 112.195 374.914 112.434 374.93 112.452C374.937 112.46 374.96 112.485 375.042 112.515C375.138 112.551 375.326 112.596 375.65 112.596C376.521 112.596 377.816 112.177 379.608 110.883L379.63 110.867L379.653 110.851C381.611 109.511 383.87 107.677 386.437 105.324L387.968 103.921L391.964 107.917L391.05 109.38C389.317 112.152 387.14 114.839 384.536 117.443C381.99 119.989 379.099 122.128 375.871 123.859C372.611 125.667 369.095 126.574 365.357 126.574C361.199 126.574 357.634 125.336 354.875 122.708L354.856 122.69L354.837 122.671C352.223 120.057 350.98 116.349 350.795 111.887C347.514 115.175 344.085 118.133 340.509 120.756C335.482 124.524 330.463 126.574 325.492 126.574C322.092 126.574 318.863 125.781 315.833 124.206C312.647 122.549 310.126 119.85 308.221 116.277L308.207 116.251L308.194 116.226C306.357 112.551 305.515 107.879 305.515 102.349C305.515 96.2843 306.717 90.243 309.096 84.2372ZM329.74 107.577C327.889 104.963 326.963 100.77 326.963 94.9968C326.963 87.0457 328.107 79.4214 330.394 72.1238C332.681 64.8263 335.84 58.9447 339.87 54.479C344.989 48.9241 349.89 46.1467 354.574 46.1467C356.099 46.1467 357.841 46.4735 359.802 47.127C361.762 47.7805 363.451 48.9786 364.867 50.7213L354.574 97.7742C354.247 99.1902 353.975 100.552 353.757 101.859C350.707 104.908 347.875 107.25 345.261 108.884C342.647 110.518 340.033 111.335 337.419 111.335C334.26 111.335 331.701 110.082 329.74 107.577ZM331.481 106.281C333.029 108.237 334.951 109.165 337.419 109.165C339.558 109.165 341.78 108.502 344.111 107.044C346.41 105.607 348.952 103.542 351.737 100.806C351.939 99.6714 352.18 98.5022 352.457 97.2989C352.458 97.2947 352.459 97.2906 352.46 97.2864L362.511 51.3365C361.498 50.3048 360.367 49.6023 359.116 49.1851C357.303 48.581 355.799 48.3162 354.574 48.3162C350.784 48.3162 346.423 50.5724 341.473 55.9408C337.704 60.1197 334.681 65.6999 332.464 72.7727C330.245 79.852 329.132 87.257 329.132 94.9968C329.132 100.597 330.043 104.219 331.481 106.281Z" fill="white"/>
<path d="M405.328 115.385L405.333 115.39C413.694 123.139 425.213 126.955 439.761 126.955C445.668 126.955 450.86 126.355 455.325 125.139C459.837 124.035 464.297 122.531 468.704 120.628L469.185 120.42L469.283 119.905L475.676 86.1542C475.676 86.1529 475.676 86.1516 475.677 86.1504C476.41 82.3971 478.429 79.9069 481.77 78.5525L481.789 78.5448L481.807 78.5363L485.079 77.0492L485.539 76.84L485.638 76.344L485.936 74.857L486.172 73.676H484.968H444.668H443.859L443.7 74.4697L443.403 75.9568L443.229 76.8233L444.071 77.0913L447.341 78.1315C447.341 78.1316 447.341 78.1317 447.342 78.1319C449.824 78.9282 451.436 80.1026 452.34 81.5745C453.242 83.0418 453.531 84.9545 453.066 87.4178L453.061 87.4464L453.057 87.4753C452.563 91.3284 451.97 95.3312 451.278 99.4838C450.585 103.642 449.991 107.308 449.495 110.48L448.606 115.073L448.603 115.088L448.601 115.103C448.123 118.064 447.155 119.821 445.899 120.689C444.631 121.531 442.816 122.006 440.356 122.006C435.838 122.006 431.799 120.507 428.203 117.479C424.597 114.443 421.657 110.04 419.42 104.207C417.291 98.3959 416.211 91.4306 416.211 83.2883C416.211 72.2808 417.833 62.5387 421.055 54.0458L421.056 54.0423C424.281 45.4421 428.755 38.7542 434.451 33.9273L434.451 33.9274L434.458 33.921C440.13 29.0179 446.643 26.5774 454.037 26.5774C458.912 26.5774 462.187 27.5121 464.098 29.1627L464.116 29.1783L464.135 29.193C466.197 30.8064 468.049 33.7688 469.611 38.2571L469.613 38.2643L469.616 38.2716L475.267 53.7371L475.504 54.3856H476.194H477.681H478.529L478.657 53.5474L482.226 30.2005L482.33 29.5217L481.729 29.1882C472.657 24.1481 462.826 21.6286 452.252 21.6286C443.801 21.6286 435.936 23.1884 428.667 26.3176C421.509 29.3424 415.205 33.6294 409.761 39.1742L409.761 39.1742L409.755 39.1808C404.409 44.7282 400.227 51.2306 397.208 58.6782L397.205 58.6846C394.28 66.0482 392.823 74.0547 392.823 82.6935C392.823 96.5808 396.957 107.524 405.328 115.385Z" fill="white" stroke="white" stroke-width="1.97466"/>
<mask id="path-8-outside-1_59_3" maskUnits="userSpaceOnUse" x="480.181" y="10.9641" width="225" height="154" fill="black">
<rect fill="white" x="480.181" y="10.9641" width="225" height="154"/>
<path d="M512.038 127.674C506.533 127.674 501.503 126.616 496.951 124.498C492.398 122.275 488.798 118.993 486.151 114.652C483.505 110.205 482.181 104.593 482.181 97.8175C482.181 91.0414 483.293 84.583 485.516 78.4422C487.845 72.3015 491.075 66.8489 495.204 62.0845C499.333 57.2142 504.15 53.4027 509.656 50.6499C515.161 47.8972 521.143 46.5208 527.602 46.5208C533.213 46.5208 538.189 47.6325 542.53 49.8558C546.977 51.9734 550.471 55.2026 553.012 59.5435C555.659 63.8844 556.982 69.4428 556.982 76.2189C556.982 82.889 555.818 89.3474 553.488 95.5941C551.265 101.735 548.089 107.24 543.96 112.111C539.936 116.875 535.172 120.687 529.666 123.545C524.267 126.298 518.391 127.674 512.038 127.674ZM513.944 124.498C517.226 124.498 520.19 123.016 522.837 120.051C525.59 116.981 527.972 112.958 529.984 107.982C531.996 102.899 533.531 97.341 534.59 91.3061C535.648 85.1653 536.178 79.0775 536.178 73.0426C536.178 64.2549 535.278 58.1671 533.478 54.7791C531.678 51.391 529.349 49.697 526.49 49.697C523.102 49.697 519.979 51.1793 517.12 54.1438C514.261 57.1083 511.773 61.0787 509.656 66.0548C507.538 71.031 505.897 76.5365 504.733 82.5714C503.568 88.6063 502.986 94.6412 502.986 100.676C502.986 109.676 504.044 115.922 506.162 119.416C508.279 122.804 510.873 124.498 513.944 124.498Z"/>
<path d="M569.938 162.772C561.044 162.772 554.004 161.396 548.816 158.643C543.734 155.89 541.193 151.867 541.193 146.573C541.193 143.291 542.357 140.274 544.687 137.521C547.016 134.874 549.874 132.545 553.262 130.533C556.756 128.521 560.303 126.933 563.903 125.769C560.303 124.816 557.497 123.545 555.486 121.957C553.474 120.263 552.468 118.146 552.468 115.605C552.468 113.064 553.951 110.099 556.915 106.711C559.986 103.217 563.585 99.882 567.714 96.7058C564.644 94.5883 562.315 91.9414 560.727 88.7651C559.139 85.5888 558.345 82.2538 558.345 78.7599C558.345 72.9367 559.827 67.59 562.791 62.7197C565.756 57.8494 569.726 53.9321 574.702 50.9675C579.784 48.003 585.343 46.5208 591.378 46.5208C595.401 46.5208 599.107 47.1031 602.495 48.2677C605.988 49.3265 608.9 50.9675 611.229 53.1909C614.617 52.6615 617.847 51.8675 620.917 50.8087C624.093 49.6441 627.111 48.2148 629.969 46.5208L631.081 47.6325L629.493 55.8908H613.612C616.153 59.2788 617.423 63.355 617.423 68.1194C617.423 74.5778 615.994 80.2951 613.135 85.2712C610.382 90.2474 606.518 94.1647 601.542 97.0234C596.566 99.7761 590.742 101.153 584.072 101.153C578.99 101.153 574.491 100.2 570.573 98.2939L568.191 102.264C567.344 103.535 567.079 104.805 567.397 106.076C567.714 107.346 568.826 108.14 570.732 108.458L596.777 113.699C605.565 115.499 611.706 117.828 615.2 120.687C618.799 123.545 620.599 127.463 620.599 132.439C620.599 138.368 618.376 143.609 613.929 148.161C609.588 152.714 603.606 156.261 595.983 158.802C588.36 161.449 579.678 162.772 569.938 162.772ZM586.931 97.9763C590.425 97.9763 593.389 95.9646 595.824 91.9414C598.365 87.9181 599.636 80.9303 599.636 70.978C599.636 64.202 598.736 58.9611 596.936 55.2555C595.136 51.5499 592.86 49.697 590.107 49.697C585.872 49.8029 582.643 52.291 580.42 57.1613C578.196 61.9257 577.084 68.3311 577.084 76.3777C577.084 82.2008 577.826 87.2828 579.308 91.6237C580.896 95.9646 583.437 98.0821 586.931 97.9763ZM557.233 141.015C557.233 146.308 559.139 150.438 562.95 153.402C566.762 156.472 571.897 158.008 578.355 158.008C586.507 158.008 592.913 156.631 597.571 153.879C602.23 151.126 604.559 147.155 604.559 141.968C604.559 138.897 603.183 136.462 600.43 134.662C597.783 132.862 593.072 131.327 586.296 130.057L567.714 126.563C567.185 126.457 566.709 126.351 566.285 126.245C563.532 127.939 561.309 130.004 559.615 132.439C558.027 134.98 557.233 137.838 557.233 141.015Z"/>
<path d="M622.117 126.245L621.164 125.292L635.616 56.0496C636.463 52.0263 637.204 48.4265 637.839 45.2503C638.474 41.9681 639.163 38.3154 639.904 34.2922C640.751 29.7395 639.004 26.722 634.663 25.2398L632.122 24.4457L632.44 22.8576L662.773 13.9641L663.885 15.0757L653.085 65.7372C658.379 60.2316 663.99 55.679 669.919 52.0792C675.954 48.3736 681.513 46.5208 686.595 46.5208C689.983 46.5208 692.736 47.5795 694.853 49.697C697.077 51.7087 698.188 54.8849 698.188 59.2258C698.188 61.4492 697.976 63.7785 697.553 66.2136C697.129 68.5429 696.6 70.978 695.965 73.519L688.024 105.917C687.601 107.929 687.177 109.676 686.754 111.158C686.33 112.534 686.118 113.646 686.118 114.493C686.118 116.716 687.071 117.828 688.977 117.828C691.73 117.828 695.594 115.499 700.57 110.84L702 112.269C699.459 116.187 696.018 119.734 691.677 122.91C687.336 126.086 682.413 127.674 676.907 127.674C673.413 127.674 670.714 126.88 668.808 125.292C666.902 123.598 665.949 121.269 665.949 118.304C665.949 116.081 666.214 113.805 666.743 111.475C667.273 109.04 667.908 106.552 668.649 104.011L675.796 76.06C676.537 73.2014 677.172 70.6074 677.701 68.2782C678.337 65.843 678.654 63.7785 678.654 62.0845C678.654 58.3788 676.907 56.526 673.413 56.526C668.225 56.526 661.397 60.761 652.926 69.2311L648.162 91.3061C646.786 97.7645 645.568 103.641 644.509 108.934C643.556 114.122 642.604 119.575 641.651 125.292L622.117 126.245Z"/>
</mask>
<path d="M512.038 127.674C506.533 127.674 501.503 126.616 496.951 124.498C492.398 122.275 488.798 118.993 486.151 114.652C483.505 110.205 482.181 104.593 482.181 97.8175C482.181 91.0414 483.293 84.583 485.516 78.4422C487.845 72.3015 491.075 66.8489 495.204 62.0845C499.333 57.2142 504.15 53.4027 509.656 50.6499C515.161 47.8972 521.143 46.5208 527.602 46.5208C533.213 46.5208 538.189 47.6325 542.53 49.8558C546.977 51.9734 550.471 55.2026 553.012 59.5435C555.659 63.8844 556.982 69.4428 556.982 76.2189C556.982 82.889 555.818 89.3474 553.488 95.5941C551.265 101.735 548.089 107.24 543.96 112.111C539.936 116.875 535.172 120.687 529.666 123.545C524.267 126.298 518.391 127.674 512.038 127.674ZM513.944 124.498C517.226 124.498 520.19 123.016 522.837 120.051C525.59 116.981 527.972 112.958 529.984 107.982C531.996 102.899 533.531 97.341 534.59 91.3061C535.648 85.1653 536.178 79.0775 536.178 73.0426C536.178 64.2549 535.278 58.1671 533.478 54.7791C531.678 51.391 529.349 49.697 526.49 49.697C523.102 49.697 519.979 51.1793 517.12 54.1438C514.261 57.1083 511.773 61.0787 509.656 66.0548C507.538 71.031 505.897 76.5365 504.733 82.5714C503.568 88.6063 502.986 94.6412 502.986 100.676C502.986 109.676 504.044 115.922 506.162 119.416C508.279 122.804 510.873 124.498 513.944 124.498Z" fill="white"/>
<path d="M569.938 162.772C561.044 162.772 554.004 161.396 548.816 158.643C543.734 155.89 541.193 151.867 541.193 146.573C541.193 143.291 542.357 140.274 544.687 137.521C547.016 134.874 549.874 132.545 553.262 130.533C556.756 128.521 560.303 126.933 563.903 125.769C560.303 124.816 557.497 123.545 555.486 121.957C553.474 120.263 552.468 118.146 552.468 115.605C552.468 113.064 553.951 110.099 556.915 106.711C559.986 103.217 563.585 99.882 567.714 96.7058C564.644 94.5883 562.315 91.9414 560.727 88.7651C559.139 85.5888 558.345 82.2538 558.345 78.7599C558.345 72.9367 559.827 67.59 562.791 62.7197C565.756 57.8494 569.726 53.9321 574.702 50.9675C579.784 48.003 585.343 46.5208 591.378 46.5208C595.401 46.5208 599.107 47.1031 602.495 48.2677C605.988 49.3265 608.9 50.9675 611.229 53.1909C614.617 52.6615 617.847 51.8675 620.917 50.8087C624.093 49.6441 627.111 48.2148 629.969 46.5208L631.081 47.6325L629.493 55.8908H613.612C616.153 59.2788 617.423 63.355 617.423 68.1194C617.423 74.5778 615.994 80.2951 613.135 85.2712C610.382 90.2474 606.518 94.1647 601.542 97.0234C596.566 99.7761 590.742 101.153 584.072 101.153C578.99 101.153 574.491 100.2 570.573 98.2939L568.191 102.264C567.344 103.535 567.079 104.805 567.397 106.076C567.714 107.346 568.826 108.14 570.732 108.458L596.777 113.699C605.565 115.499 611.706 117.828 615.2 120.687C618.799 123.545 620.599 127.463 620.599 132.439C620.599 138.368 618.376 143.609 613.929 148.161C609.588 152.714 603.606 156.261 595.983 158.802C588.36 161.449 579.678 162.772 569.938 162.772ZM586.931 97.9763C590.425 97.9763 593.389 95.9646 595.824 91.9414C598.365 87.9181 599.636 80.9303 599.636 70.978C599.636 64.202 598.736 58.9611 596.936 55.2555C595.136 51.5499 592.86 49.697 590.107 49.697C585.872 49.8029 582.643 52.291 580.42 57.1613C578.196 61.9257 577.084 68.3311 577.084 76.3777C577.084 82.2008 577.826 87.2828 579.308 91.6237C580.896 95.9646 583.437 98.0821 586.931 97.9763ZM557.233 141.015C557.233 146.308 559.139 150.438 562.95 153.402C566.762 156.472 571.897 158.008 578.355 158.008C586.507 158.008 592.913 156.631 597.571 153.879C602.23 151.126 604.559 147.155 604.559 141.968C604.559 138.897 603.183 136.462 600.43 134.662C597.783 132.862 593.072 131.327 586.296 130.057L567.714 126.563C567.185 126.457 566.709 126.351 566.285 126.245C563.532 127.939 561.309 130.004 559.615 132.439C558.027 134.98 557.233 137.838 557.233 141.015Z" fill="white"/>
<path d="M622.117 126.245L621.164 125.292L635.616 56.0496C636.463 52.0263 637.204 48.4265 637.839 45.2503C638.474 41.9681 639.163 38.3154 639.904 34.2922C640.751 29.7395 639.004 26.722 634.663 25.2398L632.122 24.4457L632.44 22.8576L662.773 13.9641L663.885 15.0757L653.085 65.7372C658.379 60.2316 663.99 55.679 669.919 52.0792C675.954 48.3736 681.513 46.5208 686.595 46.5208C689.983 46.5208 692.736 47.5795 694.853 49.697C697.077 51.7087 698.188 54.8849 698.188 59.2258C698.188 61.4492 697.976 63.7785 697.553 66.2136C697.129 68.5429 696.6 70.978 695.965 73.519L688.024 105.917C687.601 107.929 687.177 109.676 686.754 111.158C686.33 112.534 686.118 113.646 686.118 114.493C686.118 116.716 687.071 117.828 688.977 117.828C691.73 117.828 695.594 115.499 700.57 110.84L702 112.269C699.459 116.187 696.018 119.734 691.677 122.91C687.336 126.086 682.413 127.674 676.907 127.674C673.413 127.674 670.714 126.88 668.808 125.292C666.902 123.598 665.949 121.269 665.949 118.304C665.949 116.081 666.214 113.805 666.743 111.475C667.273 109.04 667.908 106.552 668.649 104.011L675.796 76.06C676.537 73.2014 677.172 70.6074 677.701 68.2782C678.337 65.843 678.654 63.7785 678.654 62.0845C678.654 58.3788 676.907 56.526 673.413 56.526C668.225 56.526 661.397 60.761 652.926 69.2311L648.162 91.3061C646.786 97.7645 645.568 103.641 644.509 108.934C643.556 114.122 642.604 119.575 641.651 125.292L622.117 126.245Z" fill="white"/>
<path d="M512.038 127.674C506.533 127.674 501.503 126.616 496.951 124.498C492.398 122.275 488.798 118.993 486.151 114.652C483.505 110.205 482.181 104.593 482.181 97.8175C482.181 91.0414 483.293 84.583 485.516 78.4422C487.845 72.3015 491.075 66.8489 495.204 62.0845C499.333 57.2142 504.15 53.4027 509.656 50.6499C515.161 47.8972 521.143 46.5208 527.602 46.5208C533.213 46.5208 538.189 47.6325 542.53 49.8558C546.977 51.9734 550.471 55.2026 553.012 59.5435C555.659 63.8844 556.982 69.4428 556.982 76.2189C556.982 82.889 555.818 89.3474 553.488 95.5941C551.265 101.735 548.089 107.24 543.96 112.111C539.936 116.875 535.172 120.687 529.666 123.545C524.267 126.298 518.391 127.674 512.038 127.674ZM513.944 124.498C517.226 124.498 520.19 123.016 522.837 120.051C525.59 116.981 527.972 112.958 529.984 107.982C531.996 102.899 533.531 97.341 534.59 91.3061C535.648 85.1653 536.178 79.0775 536.178 73.0426C536.178 64.2549 535.278 58.1671 533.478 54.7791C531.678 51.391 529.349 49.697 526.49 49.697C523.102 49.697 519.979 51.1793 517.12 54.1438C514.261 57.1083 511.773 61.0787 509.656 66.0548C507.538 71.031 505.897 76.5365 504.733 82.5714C503.568 88.6063 502.986 94.6412 502.986 100.676C502.986 109.676 504.044 115.922 506.162 119.416C508.279 122.804 510.873 124.498 513.944 124.498Z" stroke="white" stroke-width="3.94932" mask="url(#path-8-outside-1_59_3)"/>
<path d="M569.938 162.772C561.044 162.772 554.004 161.396 548.816 158.643C543.734 155.89 541.193 151.867 541.193 146.573C541.193 143.291 542.357 140.274 544.687 137.521C547.016 134.874 549.874 132.545 553.262 130.533C556.756 128.521 560.303 126.933 563.903 125.769C560.303 124.816 557.497 123.545 555.486 121.957C553.474 120.263 552.468 118.146 552.468 115.605C552.468 113.064 553.951 110.099 556.915 106.711C559.986 103.217 563.585 99.882 567.714 96.7058C564.644 94.5883 562.315 91.9414 560.727 88.7651C559.139 85.5888 558.345 82.2538 558.345 78.7599C558.345 72.9367 559.827 67.59 562.791 62.7197C565.756 57.8494 569.726 53.9321 574.702 50.9675C579.784 48.003 585.343 46.5208 591.378 46.5208C595.401 46.5208 599.107 47.1031 602.495 48.2677C605.988 49.3265 608.9 50.9675 611.229 53.1909C614.617 52.6615 617.847 51.8675 620.917 50.8087C624.093 49.6441 627.111 48.2148 629.969 46.5208L631.081 47.6325L629.493 55.8908H613.612C616.153 59.2788 617.423 63.355 617.423 68.1194C617.423 74.5778 615.994 80.2951 613.135 85.2712C610.382 90.2474 606.518 94.1647 601.542 97.0234C596.566 99.7761 590.742 101.153 584.072 101.153C578.99 101.153 574.491 100.2 570.573 98.2939L568.191 102.264C567.344 103.535 567.079 104.805 567.397 106.076C567.714 107.346 568.826 108.14 570.732 108.458L596.777 113.699C605.565 115.499 611.706 117.828 615.2 120.687C618.799 123.545 620.599 127.463 620.599 132.439C620.599 138.368 618.376 143.609 613.929 148.161C609.588 152.714 603.606 156.261 595.983 158.802C588.36 161.449 579.678 162.772 569.938 162.772ZM586.931 97.9763C590.425 97.9763 593.389 95.9646 595.824 91.9414C598.365 87.9181 599.636 80.9303 599.636 70.978C599.636 64.202 598.736 58.9611 596.936 55.2555C595.136 51.5499 592.86 49.697 590.107 49.697C585.872 49.8029 582.643 52.291 580.42 57.1613C578.196 61.9257 577.084 68.3311 577.084 76.3777C577.084 82.2008 577.826 87.2828 579.308 91.6237C580.896 95.9646 583.437 98.0821 586.931 97.9763ZM557.233 141.015C557.233 146.308 559.139 150.438 562.95 153.402C566.762 156.472 571.897 158.008 578.355 158.008C586.507 158.008 592.913 156.631 597.571 153.879C602.23 151.126 604.559 147.155 604.559 141.968C604.559 138.897 603.183 136.462 600.43 134.662C597.783 132.862 593.072 131.327 586.296 130.057L567.714 126.563C567.185 126.457 566.709 126.351 566.285 126.245C563.532 127.939 561.309 130.004 559.615 132.439C558.027 134.98 557.233 137.838 557.233 141.015Z" stroke="white" stroke-width="3.94932" mask="url(#path-8-outside-1_59_3)"/>
<path d="M622.117 126.245L621.164 125.292L635.616 56.0496C636.463 52.0263 637.204 48.4265 637.839 45.2503C638.474 41.9681 639.163 38.3154 639.904 34.2922C640.751 29.7395 639.004 26.722 634.663 25.2398L632.122 24.4457L632.44 22.8576L662.773 13.9641L663.885 15.0757L653.085 65.7372C658.379 60.2316 663.99 55.679 669.919 52.0792C675.954 48.3736 681.513 46.5208 686.595 46.5208C689.983 46.5208 692.736 47.5795 694.853 49.697C697.077 51.7087 698.188 54.8849 698.188 59.2258C698.188 61.4492 697.976 63.7785 697.553 66.2136C697.129 68.5429 696.6 70.978 695.965 73.519L688.024 105.917C687.601 107.929 687.177 109.676 686.754 111.158C686.33 112.534 686.118 113.646 686.118 114.493C686.118 116.716 687.071 117.828 688.977 117.828C691.73 117.828 695.594 115.499 700.57 110.84L702 112.269C699.459 116.187 696.018 119.734 691.677 122.91C687.336 126.086 682.413 127.674 676.907 127.674C673.413 127.674 670.714 126.88 668.808 125.292C666.902 123.598 665.949 121.269 665.949 118.304C665.949 116.081 666.214 113.805 666.743 111.475C667.273 109.04 667.908 106.552 668.649 104.011L675.796 76.06C676.537 73.2014 677.172 70.6074 677.701 68.2782C678.337 65.843 678.654 63.7785 678.654 62.0845C678.654 58.3788 676.907 56.526 673.413 56.526C668.225 56.526 661.397 60.761 652.926 69.2311L648.162 91.3061C646.786 97.7645 645.568 103.641 644.509 108.934C643.556 114.122 642.604 119.575 641.651 125.292L622.117 126.245Z" stroke="white" stroke-width="3.94932" mask="url(#path-8-outside-1_59_3)"/>
<path d="M401.824 86.1547L383.773 107.548C380.653 113.342 375.75 123.994 381.099 120.25C386.447 116.507 397.144 101.308 401.824 94.1773V86.1547Z" fill="white"/>
</svg>
